<?xml version="1.0" standalone="no"?>
<svg xmlns:xlink="http://www.w3.org/1999/xlink" id="wave" style="transform:rotate(0deg); transition: 0.3s" viewBox="0 0 1440 490" version="1.1" xmlns="http://www.w3.org/2000/svg"><defs><linearGradient id="sw-gradient-0" x1="0" x2="0" y1="1" y2="0"><stop stop-color="rgba(255, 248.939, 246.992, 1)" offset="0%"/><stop stop-color="rgba(255, 248.918, 235.475, 1)" offset="100%"/></linearGradient></defs><path style="transform:translate(0, 0px); opacity:1" fill="url(#sw-gradient-0)" d="M0,98L120,89.8C240,82,480,65,720,98C960,131,1200,212,1440,253.2C1680,294,1920,294,2160,253.2C2400,212,2640,131,2880,81.7C3120,33,3360,16,3600,65.3C3840,114,4080,229,4320,285.8C4560,343,4800,343,5040,294C5280,245,5520,147,5760,106.2C6000,65,6240,82,6480,106.2C6720,131,6960,163,7200,204.2C7440,245,7680,294,7920,302.2C8160,310,8400,278,8640,245C8880,212,9120,180,9360,212.3C9600,245,9840,343,10080,351.2C10320,359,10560,278,10800,204.2C11040,131,11280,65,11520,89.8C11760,114,12000,229,12240,245C12480,261,12720,180,12960,187.8C13200,196,13440,294,13680,302.2C13920,310,14160,229,14400,236.8C14640,245,14880,343,15120,318.5C15360,294,15600,147,15840,138.8C16080,131,16320,261,16560,285.8C16800,310,17040,229,17160,187.8L17280,147L17280,490L17160,490C17040,490,16800,490,16560,490C16320,490,16080,490,15840,490C15600,490,15360,490,15120,490C14880,490,14640,490,14400,490C14160,490,13920,490,13680,490C13440,490,13200,490,12960,490C12720,490,12480,490,12240,490C12000,490,11760,490,11520,490C11280,490,11040,490,10800,490C10560,490,10320,490,10080,490C9840,490,9600,490,9360,490C9120,490,8880,490,8640,490C8400,490,8160,490,7920,490C7680,490,7440,490,7200,490C6960,490,6720,490,6480,490C6240,490,6000,490,5760,490C5520,490,5280,490,5040,490C4800,490,4560,490,4320,490C4080,490,3840,490,3600,490C3360,490,3120,490,2880,490C2640,490,2400,490,2160,490C1920,490,1680,490,1440,490C1200,490,960,490,720,490C480,490,240,490,120,490L0,490Z"/><defs><linearGradient id="sw-gradient-1" x1="0" x2="0" y1="1" y2="0"><stop stop-color="rgba(187.123, 27.005, 57.176, 1)" offset="0%"/><stop stop-color="rgba(203.061, 4.084, 4.084, 1)" offset="100%"/></linearGradient></defs><path style="transform:translate(0, 50px); opacity:0.9" fill="url(#sw-gradient-1)" d="M0,0L120,32.7C240,65,480,131,720,138.8C960,147,1200,98,1440,89.8C1680,82,1920,114,2160,171.5C2400,229,2640,310,2880,343C3120,376,3360,359,3600,351.2C3840,343,4080,343,4320,326.7C4560,310,4800,278,5040,261.3C5280,245,5520,245,5760,212.3C6000,180,6240,114,6480,130.7C6720,147,6960,245,7200,269.5C7440,294,7680,245,7920,220.5C8160,196,8400,196,8640,196C8880,196,9120,196,9360,236.8C9600,278,9840,359,10080,343C10320,327,10560,212,10800,196C11040,180,11280,261,11520,285.8C11760,310,12000,278,12240,236.8C12480,196,12720,147,12960,155.2C13200,163,13440,229,13680,269.5C13920,310,14160,327,14400,285.8C14640,245,14880,147,15120,89.8C15360,33,15600,16,15840,81.7C16080,147,16320,294,16560,302.2C16800,310,17040,180,17160,114.3L17280,49L17280,490L17160,490C17040,490,16800,490,16560,490C16320,490,16080,490,15840,490C15600,490,15360,490,15120,490C14880,490,14640,490,14400,490C14160,490,13920,490,13680,490C13440,490,13200,490,12960,490C12720,490,12480,490,12240,490C12000,490,11760,490,11520,490C11280,490,11040,490,10800,490C10560,490,10320,490,10080,490C9840,490,9600,490,9360,490C9120,490,8880,490,8640,490C8400,490,8160,490,7920,490C7680,490,7440,490,7200,490C6960,490,6720,490,6480,490C6240,490,6000,490,5760,490C5520,490,5280,490,5040,490C4800,490,4560,490,4320,490C4080,490,3840,490,3600,490C3360,490,3120,490,2880,490C2640,490,2400,490,2160,490C1920,490,1680,490,1440,490C1200,490,960,490,720,490C480,490,240,490,120,490L0,490Z"/><defs><linearGradient id="sw-gradient-2" x1="0" x2="0" y1="1" y2="0"><stop stop-color="rgba(55.128, 98.112, 175.739, 1)" offset="0%"/><stop stop-color="rgba(45.274, 81.973, 139.311, 1)" offset="100%"/></linearGradient></defs><path style="transform:translate(0, 100px); opacity:0.8" fill="url(#sw-gradient-2)" d="M0,0L120,32.7C240,65,480,131,720,204.2C960,278,1200,359,1440,326.7C1680,294,1920,147,2160,130.7C2400,114,2640,229,2880,285.8C3120,343,3360,343,3600,285.8C3840,229,4080,114,4320,81.7C4560,49,4800,98,5040,106.2C5280,114,5520,82,5760,98C6000,114,6240,180,6480,171.5C6720,163,6960,82,7200,40.8C7440,0,7680,0,7920,24.5C8160,49,8400,98,8640,106.2C8880,114,9120,82,9360,106.2C9600,131,9840,212,10080,261.3C10320,310,10560,327,10800,351.2C11040,376,11280,408,11520,351.2C11760,294,12000,147,12240,106.2C12480,65,12720,131,12960,179.7C13200,229,13440,261,13680,294C13920,327,14160,359,14400,359.3C14640,359,14880,327,15120,318.5C15360,310,15600,327,15840,285.8C16080,245,16320,147,16560,114.3C16800,82,17040,114,17160,130.7L17280,147L17280,490L17160,490C17040,490,16800,490,16560,490C16320,490,16080,490,15840,490C15600,490,15360,490,15120,490C14880,490,14640,490,14400,490C14160,490,13920,490,13680,490C13440,490,13200,490,12960,490C12720,490,12480,490,12240,490C12000,490,11760,490,11520,490C11280,490,11040,490,10800,490C10560,490,10320,490,10080,490C9840,490,9600,490,9360,490C9120,490,8880,490,8640,490C8400,490,8160,490,7920,490C7680,490,7440,490,7200,490C6960,490,6720,490,6480,490C6240,490,6000,490,5760,490C5520,490,5280,490,5040,490C4800,490,4560,490,4320,490C4080,490,3840,490,3600,490C3360,490,3120,490,2880,490C2640,490,2400,490,2160,490C1920,490,1680,490,1440,490C1200,490,960,490,720,490C480,490,240,490,120,490L0,490Z"/></svg>