<?xml version="1.0" standalone="no"?>
<svg xmlns:xlink="http://www.w3.org/1999/xlink" id="wave" style="transform:rotate(0deg); transition: 0.3s" viewBox="0 0 1440 490" version="1.1" xmlns="http://www.w3.org/2000/svg"><defs><linearGradient id="sw-gradient-0" x1="0" x2="0" y1="1" y2="0"><stop stop-color="rgba(255, 248.939, 246.992, 1)" offset="0%"/><stop stop-color="rgba(255, 248.918, 235.475, 1)" offset="100%"/></linearGradient></defs><path style="transform:translate(0, 0px); opacity:1" fill="url(#sw-gradient-0)" d="M0,49L60,114.3C120,180,240,310,360,326.7C480,343,600,245,720,220.5C840,196,960,245,1080,277.7C1200,310,1320,327,1440,285.8C1560,245,1680,147,1800,130.7C1920,114,2040,180,2160,204.2C2280,229,2400,212,2520,220.5C2640,229,2760,261,2880,245C3000,229,3120,163,3240,147C3360,131,3480,163,3600,171.5C3720,180,3840,163,3960,187.8C4080,212,4200,278,4320,310.3C4440,343,4560,343,4680,294C4800,245,4920,147,5040,155.2C5160,163,5280,278,5400,269.5C5520,261,5640,131,5760,73.5C5880,16,6000,33,6120,73.5C6240,114,6360,180,6480,236.8C6600,294,6720,343,6840,326.7C6960,310,7080,229,7200,187.8C7320,147,7440,147,7560,171.5C7680,196,7800,245,7920,220.5C8040,196,8160,98,8280,122.5C8400,147,8520,294,8580,367.5L8640,441L8640,490L8580,490C8520,490,8400,490,8280,490C8160,490,8040,490,7920,490C7800,490,7680,490,7560,490C7440,490,7320,490,7200,490C7080,490,6960,490,6840,490C6720,490,6600,490,6480,490C6360,490,6240,490,6120,490C6000,490,5880,490,5760,490C5640,490,5520,490,5400,490C5280,490,5160,490,5040,490C4920,490,4800,490,4680,490C4560,490,4440,490,4320,490C4200,490,4080,490,3960,490C3840,490,3720,490,3600,490C3480,490,3360,490,3240,490C3120,490,3000,490,2880,490C2760,490,2640,490,2520,490C2400,490,2280,490,2160,490C2040,490,1920,490,1800,490C1680,490,1560,490,1440,490C1320,490,1200,490,1080,490C960,490,840,490,720,490C600,490,480,490,360,490C240,490,120,490,60,490L0,490Z"/><defs><linearGradient id="sw-gradient-1" x1="0" x2="0" y1="1" y2="0"><stop stop-color="rgba(187.123, 27.005, 57.176, 1)" offset="0%"/><stop stop-color="rgba(203.061, 4.084, 4.084, 1)" offset="100%"/></linearGradient></defs><path style="transform:translate(0, 50px); opacity:0.9" fill="url(#sw-gradient-1)" d="M0,245L60,228.7C120,212,240,180,360,155.2C480,131,600,114,720,155.2C840,196,960,294,1080,318.5C1200,343,1320,294,1440,236.8C1560,180,1680,114,1800,73.5C1920,33,2040,16,2160,81.7C2280,147,2400,294,2520,326.7C2640,359,2760,278,2880,253.2C3000,229,3120,261,3240,269.5C3360,278,3480,261,3600,253.2C3720,245,3840,245,3960,261.3C4080,278,4200,310,4320,285.8C4440,261,4560,180,4680,196C4800,212,4920,327,5040,375.7C5160,425,5280,408,5400,359.3C5520,310,5640,229,5760,228.7C5880,229,6000,310,6120,285.8C6240,261,6360,131,6480,122.5C6600,114,6720,229,6840,285.8C6960,343,7080,343,7200,310.3C7320,278,7440,212,7560,228.7C7680,245,7800,343,7920,367.5C8040,392,8160,343,8280,343C8400,343,8520,392,8580,416.5L8640,441L8640,490L8580,490C8520,490,8400,490,8280,490C8160,490,8040,490,7920,490C7800,490,7680,490,7560,490C7440,490,7320,490,7200,490C7080,490,6960,490,6840,490C6720,490,6600,490,6480,490C6360,490,6240,490,6120,490C6000,490,5880,490,5760,490C5640,490,5520,490,5400,490C5280,490,5160,490,5040,490C4920,490,4800,490,4680,490C4560,490,4440,490,4320,490C4200,490,4080,490,3960,490C3840,490,3720,490,3600,490C3480,490,3360,490,3240,490C3120,490,3000,490,2880,490C2760,490,2640,490,2520,490C2400,490,2280,490,2160,490C2040,490,1920,490,1800,490C1680,490,1560,490,1440,490C1320,490,1200,490,1080,490C960,490,840,490,720,490C600,490,480,490,360,490C240,490,120,490,60,490L0,490Z"/><defs><linearGradient id="sw-gradient-2" x1="0" x2="0" y1="1" y2="0"><stop stop-color="rgba(55.128, 98.112, 175.739, 1)" offset="0%"/><stop stop-color="rgba(45.274, 81.973, 139.311, 1)" offset="100%"/></linearGradient></defs><path style="transform:translate(0, 100px); opacity:0.8" fill="url(#sw-gradient-2)" d="M0,49L60,40.8C120,33,240,16,360,65.3C480,114,600,229,720,285.8C840,343,960,343,1080,302.2C1200,261,1320,180,1440,138.8C1560,98,1680,98,1800,130.7C1920,163,2040,229,2160,269.5C2280,310,2400,327,2520,294C2640,261,2760,180,2880,179.7C3000,180,3120,261,3240,245C3360,229,3480,114,3600,106.2C3720,98,3840,196,3960,204.2C4080,212,4200,131,4320,106.2C4440,82,4560,114,4680,114.3C4800,114,4920,82,5040,81.7C5160,82,5280,114,5400,171.5C5520,229,5640,310,5760,334.8C5880,359,6000,327,6120,294C6240,261,6360,229,6480,245C6600,261,6720,327,6840,359.3C6960,392,7080,392,7200,392C7320,392,7440,392,7560,392C7680,392,7800,392,7920,400.2C8040,408,8160,425,8280,408.3C8400,392,8520,343,8580,318.5L8640,294L8640,490L8580,490C8520,490,8400,490,8280,490C8160,490,8040,490,7920,490C7800,490,7680,490,7560,490C7440,490,7320,490,7200,490C7080,490,6960,490,6840,490C6720,490,6600,490,6480,490C6360,490,6240,490,6120,490C6000,490,5880,490,5760,490C5640,490,5520,490,5400,490C5280,490,5160,490,5040,490C4920,490,4800,490,4680,490C4560,490,4440,490,4320,490C4200,490,4080,490,3960,490C3840,490,3720,490,3600,490C3480,490,3360,490,3240,490C3120,490,3000,490,2880,490C2760,490,2640,490,2520,490C2400,490,2280,490,2160,490C2040,490,1920,490,1800,490C1680,490,1560,490,1440,490C1320,490,1200,490,1080,490C960,490,840,490,720,490C600,490,480,490,360,490C240,490,120,490,60,490L0,490Z"/></svg>